Simulation
nRows=23
nColumns=15
endheader
time  TH_x TH_y TH_z SC_y  SC_z  SC_x  AC_y  AC_z  AC_x  GH_y  GH_z  GH_yy  EL_x  PS_y
1.3949999999999996  0.000000  0.000000  0.000000  -26.48806444336281  13.326729710013279  37.00468259017844  73.7065955962143  4.060225747425887  3.296959644693594  31.58519169888471  63.208702130937404  -51.76747929776508  25.88792404364358  120.000000
1.4228999999999996  0.000000  0.000000  0.000000  -26.7453104873597  13.338364892424245  38.04136283811166  73.91634880992227  3.314992045665607  3.3101938420374366  31.45999630131251  63.09927394823482  -51.97976096854575  26.068255467968154  120.000000
1.4507999999999994  0.000000  0.000000  0.000000  -26.89882177566237  13.292529402672216  38.94287014449038  74.0623073783964  2.5742249065722445  3.1683776729484157  31.478302153942295  62.937926705353966  -52.21487501640719  26.20383444842675  120.000000
1.4786999999999995  0.000000  0.000000  0.000000  -26.93981553342629  13.188214884731085  39.694433248221365  74.1408525519246  1.8460970576242688  2.864913358636982  31.63100176327311  62.734299022984565  -52.4714216848359  26.295831010931444  120.000000
1.5065999999999995  0.000000  0.000000  0.000000  -26.86433369710758  13.024237479356573  40.28611407994757  74.15174581948463  1.1394012628283525  2.3988620884600644  31.904154410202636  62.50005603344977  -52.74057943866313  26.345158593293082  120.000000
1.5344999999999995  0.000000  0.000000  0.000000  -26.67398448558891  12.799277399308094  40.71332136582966  74.098294857168  0.4635852132413589  1.7757163593470826  32.27981404144175  62.24801298504553  -53.006525567096375  26.352539796388804  120.000000
1.5623999999999996  0.000000  0.000000  0.000000  -26.375826472926974  12.512186467514868  40.97627063228069  73.98700049377261  -0.1717502617284484  1.0068822675973568  32.73722092117258  61.99114667843741  -53.24892824771646  26.318709643575318  120.000000
1.5902999999999994  0.000000  0.000000  0.000000  -25.98141478380214  12.162316168360334  41.07896212464578  73.82637780907852  -0.7574364591577396  0.1083417057567204  33.25437134976008  61.74121340011258  -53.44665750683077  26.24469022411204  120.000000
1.6181999999999994  0.000000  0.000000  0.000000  -25.505795961536663  11.749881028434324  41.0279525081369  73.62575568791043  -1.2851973976973847  -0.9012381804453411  33.80962839268657  61.50750955242076  -53.5819855688921  26.132049459149496  120.000000
1.6460999999999995  0.000000  0.000000  0.000000  -24.966384749974235  11.27626548597203  40.83116879874736  73.39400104207175  -1.7479947720865723  -2.002205826697579  34.38317585916312  61.295887721603904  -53.64398862261223  25.983099410993628  120.000000
1.6739999999999995  0.000000  0.000000  0.000000  -24.381979404166678  10.744118913776589  40.496877266318315  73.1387591578875  -2.140287967326024  -3.175177030333386  34.95805992075335  61.10858940536668  -53.63015408056295  25.80087310236767  120.000000
1.7018999999999995  0.000000  0.000000  0.000000  -23.771544103211102  10.157321586178467  40.033149552778205  72.86583272929008  -2.457921363480728  -4.401787839729368  35.52078974764802  60.94449575787758  -53.5453604223767  25.588777216041183  120.000000
1.7297999999999993  0.000000  0.000000  0.000000  -23.152912861541413  9.520831785742331  39.447520602128044  72.57909266324101  -2.698004305454844  -5.66501863910257  36.06159278390424  60.79983599147267  -53.39894212368211  25.350032649012995  120.000000
1.7576999999999994  0.000000  0.000000  0.000000  -22.541053050626868  8.840487521809527  38.74671164021118  72.28039215451325  -2.858994007982473  -6.94901083622728  36.57463790598465  60.668685991020084  -53.20065730068283  25.087146028027256  120.000000
1.7855999999999994  0.000000  0.000000  0.000000  -21.946689174454573  8.122784904302952  37.936384160728416  71.9696845729758  -2.9411225841032453  -8.238649611395092  37.057995876768544  60.5434434192617  -52.957021509662745  24.801558402077124  120.000000
1.8134999999999994  0.000000  0.000000  0.000000  -21.37555387862919  7.3750165955287335  37.02131507988869  71.64498487739807  -2.9465533459966555  -9.51930597423855  37.513201032897044  60.41482196068005  -52.66902809804591  24.49366802202893  120.000000
1.8413999999999995  0.000000  0.000000  0.000000  -20.82883811544781  6.605242053223494  36.00600599158841  71.30250779158696  -2.879425536024773  -10.776637391340035  37.94451029093444  60.27171433338835  -52.33227980499285  24.163413364370154  120.000000
1.8692999999999993  0.000000  0.000000  0.000000  -20.30425535930589  5.822534826497654  34.89564320294613  70.93686513590207  -2.7456000788756763  -11.99665634072112  38.358110649374794  60.10069621304906  -51.93901112814898  23.811398099371736  120.000000
1.8971999999999993  0.000000  0.000000  0.000000  -19.797550012582956  5.036863175326364  33.69715118056352  70.5415396502991  -2.552565813017052  -13.165937162710174  38.761395500370845  59.88566266871678  -51.48127073900718  23.440276633195086  120.000000
1.9250999999999994  0.000000  0.000000  0.000000  -19.303723701050753  4.25906022939975  32.420059559157075  70.1093525582393  -2.309342778427836  -14.272022677108698  39.16226897279195  59.60754526685338  -50.9538990355984  23.056054590388086  120.000000
1.9529999999999994  0.000000  0.000000  0.000000  -18.81812219567476  3.500672770480397  31.07664420727951  69.6337209852481  -2.0267682577497506  -15.30398857307002  39.568434557709175  59.2447418489769  -50.356534539903514  22.668852445998006  120.000000
1.9808999999999994  0.000000  0.000000  0.000000  -18.336712642521803  2.7724798430572206  29.68156808261859  69.10919442187249  -1.7178768090804413  -16.252113618401616  39.98646828271738  58.7740492122474  -49.69376295090685  22.29253858179856  120.000000
2.0087999999999995  0.000000  0.000000  0.000000  -17.85735239323107  2.0837582563291748  28.25150966561524  68.5320289478292  -1.3972191138256806  -17.10834423779445  40.41965323373672  58.172757063859585  -48.97358170552489  21.94321678603502  120.000000
